<mxfile host="app.diagrams.net" agent="Mozilla/5.0 (Windows NT 10.0; Win64; x64) AppleWebKit/537.36 (KHTML, like Gecko) Chrome/134.0.0.0 Safari/537.36" version="26.0.16">
  <diagram id="C5RBs43oDa-KdzZeNtuy" name="Page-1">
    <mxGraphModel dx="1687" dy="2087" grid="1" gridSize="10" guides="1" tooltips="1" connect="1" arrows="1" fold="1" page="1" pageScale="1" pageWidth="827" pageHeight="1169" math="0" shadow="0">
      <root>
        <mxCell id="WIyWlLk6GJQsqaUBKTNV-0" />
        <mxCell id="WIyWlLk6GJQsqaUBKTNV-1" parent="WIyWlLk6GJQsqaUBKTNV-0" />
        <mxCell id="CXp8G5FO8gf-xtdIojPj-0" value="&lt;p style=&quot;margin:0px;margin-top:4px;text-align:center;&quot;&gt;&lt;i&gt;&amp;lt;&amp;lt;Interface&amp;gt;&amp;gt;&lt;/i&gt;&lt;br&gt;&lt;b&gt;ASTNode&lt;/b&gt;&lt;/p&gt;&lt;hr size=&quot;1&quot; style=&quot;border-style:solid;&quot;&gt;&lt;p style=&quot;margin:0px;margin-left:4px;&quot;&gt;+ TR accept(Visitor&amp;lt;TP,TR&amp;gt; v, TP param)&lt;/p&gt;" style="verticalAlign=top;align=left;overflow=fill;html=1;whiteSpace=wrap;" parent="WIyWlLk6GJQsqaUBKTNV-1" vertex="1">
          <mxGeometry x="35" y="10" width="240" height="70" as="geometry" />
        </mxCell>
        <mxCell id="CXp8G5FO8gf-xtdIojPj-1" value="&lt;p style=&quot;margin:0px;margin-top:4px;text-align:center;&quot;&gt;&lt;i&gt;&amp;lt;&amp;lt;Interface&amp;gt;&amp;gt;&lt;/i&gt;&lt;br&gt;&lt;b&gt;Locatable&lt;/b&gt;&lt;/p&gt;&lt;hr size=&quot;1&quot; style=&quot;border-style:solid;&quot;&gt;&lt;p style=&quot;margin:0px;margin-left:4px;&quot;&gt;+ getLine(): int&lt;/p&gt;&lt;p style=&quot;margin:0px;margin-left:4px;&quot;&gt;+ getColumn(): int&lt;/p&gt;" style="verticalAlign=top;align=left;overflow=fill;html=1;whiteSpace=wrap;" parent="WIyWlLk6GJQsqaUBKTNV-1" vertex="1">
          <mxGeometry x="120" y="200" width="160" height="80" as="geometry" />
        </mxCell>
        <mxCell id="CXp8G5FO8gf-xtdIojPj-2" value="&lt;p style=&quot;margin:0px;margin-top:4px;text-align:center;&quot;&gt;&lt;i&gt;&amp;lt;&amp;lt;Interface&amp;gt;&amp;gt;&lt;/i&gt;&lt;br&gt;&lt;b&gt;Definition&lt;/b&gt;&lt;/p&gt;&lt;hr size=&quot;1&quot; style=&quot;border-style:solid;&quot;&gt;&lt;p style=&quot;margin:0px;margin-left:4px;&quot;&gt;+ getType(): Type&lt;/p&gt;&lt;p style=&quot;margin:0px;margin-left:4px;&quot;&gt;+ getName(): String&lt;/p&gt;" style="verticalAlign=top;align=left;overflow=fill;html=1;whiteSpace=wrap;" parent="WIyWlLk6GJQsqaUBKTNV-1" vertex="1">
          <mxGeometry x="430" y="320" width="190" height="90" as="geometry" />
        </mxCell>
        <mxCell id="CXp8G5FO8gf-xtdIojPj-3" value="&lt;p style=&quot;margin:0px;margin-top:4px;text-align:center;&quot;&gt;&lt;i&gt;&amp;lt;&amp;lt;Interface&amp;gt;&amp;gt;&lt;/i&gt;&lt;br&gt;&lt;b&gt;Type&lt;/b&gt;&lt;/p&gt;&lt;hr size=&quot;1&quot; style=&quot;border-style:solid;&quot;&gt;&lt;p style=&quot;margin:0px;margin-left:4px;&quot;&gt;&lt;br&gt;&lt;/p&gt;" style="verticalAlign=top;align=left;overflow=fill;html=1;whiteSpace=wrap;" parent="WIyWlLk6GJQsqaUBKTNV-1" vertex="1">
          <mxGeometry x="730" y="370" width="190" height="50" as="geometry" />
        </mxCell>
        <mxCell id="CXp8G5FO8gf-xtdIojPj-4" value="Program" style="swimlane;fontStyle=0;childLayout=stackLayout;horizontal=1;startSize=26;fillColor=none;horizontalStack=0;resizeParent=1;resizeParentMax=0;resizeLast=0;collapsible=1;marginBottom=0;whiteSpace=wrap;html=1;" parent="WIyWlLk6GJQsqaUBKTNV-1" vertex="1">
          <mxGeometry x="414" y="110" width="140" height="30" as="geometry" />
        </mxCell>
        <mxCell id="CXp8G5FO8gf-xtdIojPj-5" value="&lt;p style=&quot;margin:0px;margin-top:4px;text-align:center;&quot;&gt;&lt;i&gt;&amp;lt;&amp;lt;Interface&amp;gt;&amp;gt;&lt;/i&gt;&lt;br&gt;&lt;b&gt;Statement&lt;/b&gt;&lt;/p&gt;&lt;hr size=&quot;1&quot; style=&quot;border-style:solid;&quot;&gt;&lt;p style=&quot;margin:0px;margin-left:4px;&quot;&gt;&lt;br&gt;&lt;/p&gt;" style="verticalAlign=top;align=left;overflow=fill;html=1;whiteSpace=wrap;" parent="WIyWlLk6GJQsqaUBKTNV-1" vertex="1">
          <mxGeometry x="60" y="380" width="190" height="50" as="geometry" />
        </mxCell>
        <mxCell id="CXp8G5FO8gf-xtdIojPj-6" value="" style="endArrow=block;dashed=1;endFill=0;endSize=12;html=1;rounded=0;exitX=0.5;exitY=0;exitDx=0;exitDy=0;entryX=0.5;entryY=1;entryDx=0;entryDy=0;" parent="WIyWlLk6GJQsqaUBKTNV-1" source="CXp8G5FO8gf-xtdIojPj-5" target="CXp8G5FO8gf-xtdIojPj-1" edge="1">
          <mxGeometry width="160" relative="1" as="geometry">
            <mxPoint x="330" y="290" as="sourcePoint" />
            <mxPoint x="200" y="290" as="targetPoint" />
            <Array as="points">
              <mxPoint x="155" y="340" />
              <mxPoint x="200" y="340" />
            </Array>
          </mxGeometry>
        </mxCell>
        <mxCell id="CXp8G5FO8gf-xtdIojPj-7" value="" style="endArrow=block;dashed=1;endFill=0;endSize=12;html=1;rounded=0;exitX=0;exitY=0.5;exitDx=0;exitDy=0;" parent="WIyWlLk6GJQsqaUBKTNV-1" source="CXp8G5FO8gf-xtdIojPj-2" edge="1">
          <mxGeometry width="160" relative="1" as="geometry">
            <mxPoint x="330" y="290" as="sourcePoint" />
            <mxPoint x="200" y="280" as="targetPoint" />
            <Array as="points">
              <mxPoint x="300" y="365" />
              <mxPoint x="300" y="340" />
              <mxPoint x="200" y="340" />
            </Array>
          </mxGeometry>
        </mxCell>
        <mxCell id="CXp8G5FO8gf-xtdIojPj-8" value="Use" style="endArrow=open;endSize=12;dashed=1;html=1;rounded=0;exitX=1;exitY=0.5;exitDx=0;exitDy=0;entryX=-0.014;entryY=0.61;entryDx=0;entryDy=0;entryPerimeter=0;" parent="WIyWlLk6GJQsqaUBKTNV-1" source="CXp8G5FO8gf-xtdIojPj-2" target="CXp8G5FO8gf-xtdIojPj-3" edge="1">
          <mxGeometry width="160" relative="1" as="geometry">
            <mxPoint x="510" y="430" as="sourcePoint" />
            <mxPoint x="730" y="380" as="targetPoint" />
            <Array as="points">
              <mxPoint x="680" y="365" />
              <mxPoint x="680" y="400" />
            </Array>
          </mxGeometry>
        </mxCell>
        <mxCell id="CXp8G5FO8gf-xtdIojPj-9" value="" style="endArrow=diamondThin;endFill=0;endSize=24;html=1;rounded=0;entryX=0.5;entryY=1;entryDx=0;entryDy=0;exitX=0.5;exitY=0;exitDx=0;exitDy=0;" parent="WIyWlLk6GJQsqaUBKTNV-1" source="CXp8G5FO8gf-xtdIojPj-2" target="CXp8G5FO8gf-xtdIojPj-4" edge="1">
          <mxGeometry width="160" relative="1" as="geometry">
            <mxPoint x="330" y="290" as="sourcePoint" />
            <mxPoint x="490" y="290" as="targetPoint" />
            <Array as="points">
              <mxPoint x="525" y="280" />
              <mxPoint x="484" y="280" />
            </Array>
          </mxGeometry>
        </mxCell>
        <mxCell id="CXp8G5FO8gf-xtdIojPj-10" value="0...n" style="edgeLabel;html=1;align=center;verticalAlign=middle;resizable=0;points=[];" parent="CXp8G5FO8gf-xtdIojPj-9" vertex="1" connectable="0">
          <mxGeometry x="-0.7344" y="-1" relative="1" as="geometry">
            <mxPoint as="offset" />
          </mxGeometry>
        </mxCell>
        <mxCell id="CXp8G5FO8gf-xtdIojPj-11" value="" style="endArrow=block;dashed=1;endFill=0;endSize=12;html=1;rounded=0;entryX=1;entryY=0.5;entryDx=0;entryDy=0;exitX=0.5;exitY=0;exitDx=0;exitDy=0;" parent="WIyWlLk6GJQsqaUBKTNV-1" source="CXp8G5FO8gf-xtdIojPj-4" target="CXp8G5FO8gf-xtdIojPj-0" edge="1">
          <mxGeometry width="160" relative="1" as="geometry">
            <mxPoint x="330" y="290" as="sourcePoint" />
            <mxPoint x="490" y="290" as="targetPoint" />
            <Array as="points">
              <mxPoint x="484" y="45" />
            </Array>
          </mxGeometry>
        </mxCell>
        <mxCell id="CXp8G5FO8gf-xtdIojPj-12" value="" style="endArrow=block;dashed=1;endFill=0;endSize=12;html=1;rounded=0;exitX=0.5;exitY=0;exitDx=0;exitDy=0;" parent="WIyWlLk6GJQsqaUBKTNV-1" source="CXp8G5FO8gf-xtdIojPj-3" target="CXp8G5FO8gf-xtdIojPj-0" edge="1">
          <mxGeometry width="160" relative="1" as="geometry">
            <mxPoint x="494" y="120" as="sourcePoint" />
            <mxPoint x="310" y="10" as="targetPoint" />
            <Array as="points">
              <mxPoint x="825" y="45" />
            </Array>
          </mxGeometry>
        </mxCell>
        <mxCell id="CXp8G5FO8gf-xtdIojPj-13" value="FuncDefinition" style="swimlane;fontStyle=0;childLayout=stackLayout;horizontal=1;startSize=26;fillColor=none;horizontalStack=0;resizeParent=1;resizeParentMax=0;resizeLast=0;collapsible=1;marginBottom=0;whiteSpace=wrap;html=1;" parent="WIyWlLk6GJQsqaUBKTNV-1" vertex="1">
          <mxGeometry x="310" y="470" width="140" height="30" as="geometry" />
        </mxCell>
        <mxCell id="CXp8G5FO8gf-xtdIojPj-14" value="VarDefinition" style="swimlane;fontStyle=0;childLayout=stackLayout;horizontal=1;startSize=26;fillColor=none;horizontalStack=0;resizeParent=1;resizeParentMax=0;resizeLast=0;collapsible=1;marginBottom=0;whiteSpace=wrap;html=1;" parent="WIyWlLk6GJQsqaUBKTNV-1" vertex="1">
          <mxGeometry x="490" y="510" width="140" height="30" as="geometry" />
        </mxCell>
        <mxCell id="CXp8G5FO8gf-xtdIojPj-15" value="" style="endArrow=block;dashed=1;endFill=0;endSize=12;html=1;rounded=0;exitX=0.5;exitY=0;exitDx=0;exitDy=0;entryX=0.47;entryY=1;entryDx=0;entryDy=0;entryPerimeter=0;" parent="WIyWlLk6GJQsqaUBKTNV-1" source="CXp8G5FO8gf-xtdIojPj-13" target="CXp8G5FO8gf-xtdIojPj-2" edge="1">
          <mxGeometry width="160" relative="1" as="geometry">
            <mxPoint x="330" y="290" as="sourcePoint" />
            <mxPoint x="490" y="290" as="targetPoint" />
            <Array as="points">
              <mxPoint x="380" y="440" />
              <mxPoint x="520" y="440" />
            </Array>
          </mxGeometry>
        </mxCell>
        <mxCell id="CXp8G5FO8gf-xtdIojPj-16" value="" style="endArrow=block;dashed=1;endFill=0;endSize=12;html=1;rounded=0;exitX=0.5;exitY=0;exitDx=0;exitDy=0;" parent="WIyWlLk6GJQsqaUBKTNV-1" source="CXp8G5FO8gf-xtdIojPj-14" edge="1">
          <mxGeometry width="160" relative="1" as="geometry">
            <mxPoint x="330" y="290" as="sourcePoint" />
            <mxPoint x="520" y="410" as="targetPoint" />
            <Array as="points">
              <mxPoint x="560" y="440" />
              <mxPoint x="520" y="440" />
            </Array>
          </mxGeometry>
        </mxCell>
        <mxCell id="CXp8G5FO8gf-xtdIojPj-17" value="" style="endArrow=block;dashed=1;endFill=0;endSize=12;html=1;rounded=0;exitX=0;exitY=0.5;exitDx=0;exitDy=0;entryX=0.5;entryY=1;entryDx=0;entryDy=0;" parent="WIyWlLk6GJQsqaUBKTNV-1" source="CXp8G5FO8gf-xtdIojPj-14" target="CXp8G5FO8gf-xtdIojPj-5" edge="1">
          <mxGeometry width="160" relative="1" as="geometry">
            <mxPoint x="170" y="484.6" as="sourcePoint" />
            <mxPoint x="110" y="525" as="targetPoint" />
            <Array as="points">
              <mxPoint x="155" y="525" />
            </Array>
          </mxGeometry>
        </mxCell>
        <mxCell id="CXp8G5FO8gf-xtdIojPj-18" value="" style="endArrow=diamondThin;endFill=0;endSize=24;html=1;rounded=0;exitX=1;exitY=0.5;exitDx=0;exitDy=0;" parent="WIyWlLk6GJQsqaUBKTNV-1" source="CXp8G5FO8gf-xtdIojPj-5" edge="1">
          <mxGeometry width="160" relative="1" as="geometry">
            <mxPoint x="150" y="484.44" as="sourcePoint" />
            <mxPoint x="310" y="484.44" as="targetPoint" />
            <Array as="points">
              <mxPoint x="280" y="405" />
              <mxPoint x="280" y="484" />
            </Array>
          </mxGeometry>
        </mxCell>
        <mxCell id="vYRAZgHzzo28ocDOjH3z-48" value="0...n" style="edgeLabel;html=1;align=center;verticalAlign=middle;resizable=0;points=[];" parent="CXp8G5FO8gf-xtdIojPj-18" vertex="1" connectable="0">
          <mxGeometry x="-0.801" relative="1" as="geometry">
            <mxPoint x="16" as="offset" />
          </mxGeometry>
        </mxCell>
        <mxCell id="CXp8G5FO8gf-xtdIojPj-29" value="Extends" style="endArrow=block;endSize=16;endFill=0;html=1;rounded=0;entryX=0.5;entryY=1;entryDx=0;entryDy=0;exitX=0.5;exitY=0;exitDx=0;exitDy=0;" parent="WIyWlLk6GJQsqaUBKTNV-1" source="CXp8G5FO8gf-xtdIojPj-1" target="CXp8G5FO8gf-xtdIojPj-0" edge="1">
          <mxGeometry width="160" relative="1" as="geometry">
            <mxPoint x="140" y="150" as="sourcePoint" />
            <mxPoint x="300" y="150" as="targetPoint" />
            <Array as="points">
              <mxPoint x="200" y="160" />
              <mxPoint x="155" y="160" />
            </Array>
          </mxGeometry>
        </mxCell>
        <mxCell id="vYRAZgHzzo28ocDOjH3z-0" value="Read" style="swimlane;fontStyle=0;childLayout=stackLayout;horizontal=1;startSize=26;fillColor=none;horizontalStack=0;resizeParent=1;resizeParentMax=0;resizeLast=0;collapsible=1;marginBottom=0;whiteSpace=wrap;html=1;" parent="WIyWlLk6GJQsqaUBKTNV-1" vertex="1">
          <mxGeometry x="210" y="720" width="140" height="30" as="geometry" />
        </mxCell>
        <mxCell id="vYRAZgHzzo28ocDOjH3z-1" value="Write" style="swimlane;fontStyle=0;childLayout=stackLayout;horizontal=1;startSize=26;fillColor=none;horizontalStack=0;resizeParent=1;resizeParentMax=0;resizeLast=0;collapsible=1;marginBottom=0;whiteSpace=wrap;html=1;" parent="WIyWlLk6GJQsqaUBKTNV-1" vertex="1">
          <mxGeometry x="210" y="760" width="140" height="30" as="geometry" />
        </mxCell>
        <mxCell id="vYRAZgHzzo28ocDOjH3z-4" value="IfElse" style="swimlane;fontStyle=0;childLayout=stackLayout;horizontal=1;startSize=26;fillColor=none;horizontalStack=0;resizeParent=1;resizeParentMax=0;resizeLast=0;collapsible=1;marginBottom=0;whiteSpace=wrap;html=1;" parent="WIyWlLk6GJQsqaUBKTNV-1" vertex="1">
          <mxGeometry x="210" y="680" width="140" height="30" as="geometry" />
        </mxCell>
        <mxCell id="vYRAZgHzzo28ocDOjH3z-5" value="While" style="swimlane;fontStyle=0;childLayout=stackLayout;horizontal=1;startSize=26;fillColor=none;horizontalStack=0;resizeParent=1;resizeParentMax=0;resizeLast=0;collapsible=1;marginBottom=0;whiteSpace=wrap;html=1;" parent="WIyWlLk6GJQsqaUBKTNV-1" vertex="1">
          <mxGeometry x="210" y="800" width="140" height="30" as="geometry" />
        </mxCell>
        <mxCell id="vYRAZgHzzo28ocDOjH3z-14" value="Return" style="swimlane;fontStyle=0;childLayout=stackLayout;horizontal=1;startSize=26;fillColor=none;horizontalStack=0;resizeParent=1;resizeParentMax=0;resizeLast=0;collapsible=1;marginBottom=0;whiteSpace=wrap;html=1;" parent="WIyWlLk6GJQsqaUBKTNV-1" vertex="1">
          <mxGeometry x="210" y="840" width="140" height="30" as="geometry" />
        </mxCell>
        <mxCell id="Sv4E_dSJLxDFvrBXRxeP-11" style="edgeStyle=orthogonalEdgeStyle;rounded=0;orthogonalLoop=1;jettySize=auto;html=1;exitX=0.25;exitY=1;exitDx=0;exitDy=0;" parent="WIyWlLk6GJQsqaUBKTNV-1" source="vYRAZgHzzo28ocDOjH3z-19" edge="1">
          <mxGeometry relative="1" as="geometry">
            <mxPoint x="667.5555555555554" y="770" as="targetPoint" />
          </mxGeometry>
        </mxCell>
        <mxCell id="vYRAZgHzzo28ocDOjH3z-19" value="&lt;p style=&quot;margin:0px;margin-top:4px;text-align:center;&quot;&gt;&lt;i&gt;&amp;lt;&amp;lt;Interface&amp;gt;&amp;gt;&lt;/i&gt;&lt;br&gt;&lt;b&gt;Expression&lt;/b&gt;&lt;/p&gt;&lt;hr size=&quot;1&quot; style=&quot;border-style:solid;&quot;&gt;&lt;p style=&quot;margin:0px;margin-left:4px;&quot;&gt;&lt;br&gt;&lt;/p&gt;" style="verticalAlign=top;align=left;overflow=fill;html=1;whiteSpace=wrap;" parent="WIyWlLk6GJQsqaUBKTNV-1" vertex="1">
          <mxGeometry x="620" y="720" width="190" height="50" as="geometry" />
        </mxCell>
        <mxCell id="vYRAZgHzzo28ocDOjH3z-20" value="" style="endArrow=diamondThin;endFill=0;endSize=24;html=1;rounded=0;entryX=1;entryY=0.5;entryDx=0;entryDy=0;exitX=0;exitY=0.5;exitDx=0;exitDy=0;" parent="WIyWlLk6GJQsqaUBKTNV-1" source="vYRAZgHzzo28ocDOjH3z-19" target="vYRAZgHzzo28ocDOjH3z-0" edge="1">
          <mxGeometry width="160" relative="1" as="geometry">
            <mxPoint x="320" y="760" as="sourcePoint" />
            <mxPoint x="480" y="760" as="targetPoint" />
            <Array as="points">
              <mxPoint x="490" y="745" />
              <mxPoint x="490" y="735" />
            </Array>
          </mxGeometry>
        </mxCell>
        <mxCell id="vYRAZgHzzo28ocDOjH3z-21" value="" style="endArrow=diamondThin;endFill=0;endSize=24;html=1;rounded=0;entryX=1;entryY=0.5;entryDx=0;entryDy=0;exitX=0;exitY=0.5;exitDx=0;exitDy=0;" parent="WIyWlLk6GJQsqaUBKTNV-1" source="vYRAZgHzzo28ocDOjH3z-19" target="vYRAZgHzzo28ocDOjH3z-1" edge="1">
          <mxGeometry width="160" relative="1" as="geometry">
            <mxPoint x="630" y="755" as="sourcePoint" />
            <mxPoint x="360" y="705" as="targetPoint" />
            <Array as="points">
              <mxPoint x="490" y="745" />
              <mxPoint x="490" y="775" />
            </Array>
          </mxGeometry>
        </mxCell>
        <mxCell id="vYRAZgHzzo28ocDOjH3z-23" value="" style="endArrow=diamondThin;endFill=0;endSize=24;html=1;rounded=0;entryX=1;entryY=0.5;entryDx=0;entryDy=0;exitX=0;exitY=0.5;exitDx=0;exitDy=0;" parent="WIyWlLk6GJQsqaUBKTNV-1" source="vYRAZgHzzo28ocDOjH3z-19" target="vYRAZgHzzo28ocDOjH3z-4" edge="1">
          <mxGeometry width="160" relative="1" as="geometry">
            <mxPoint x="630" y="755" as="sourcePoint" />
            <mxPoint x="360" y="745" as="targetPoint" />
            <Array as="points">
              <mxPoint x="490" y="745" />
              <mxPoint x="490" y="695" />
            </Array>
          </mxGeometry>
        </mxCell>
        <mxCell id="vYRAZgHzzo28ocDOjH3z-25" value="" style="endArrow=diamondThin;endFill=0;endSize=24;html=1;rounded=0;entryX=1;entryY=0.5;entryDx=0;entryDy=0;exitX=0;exitY=0.5;exitDx=0;exitDy=0;" parent="WIyWlLk6GJQsqaUBKTNV-1" source="vYRAZgHzzo28ocDOjH3z-19" target="vYRAZgHzzo28ocDOjH3z-5" edge="1">
          <mxGeometry width="160" relative="1" as="geometry">
            <mxPoint x="630" y="755" as="sourcePoint" />
            <mxPoint x="360" y="745" as="targetPoint" />
            <Array as="points">
              <mxPoint x="490" y="745" />
              <mxPoint x="490" y="815" />
            </Array>
          </mxGeometry>
        </mxCell>
        <mxCell id="vYRAZgHzzo28ocDOjH3z-27" value="" style="endArrow=diamondThin;endFill=0;endSize=24;html=1;rounded=0;entryX=1;entryY=0.5;entryDx=0;entryDy=0;exitX=0;exitY=0.5;exitDx=0;exitDy=0;" parent="WIyWlLk6GJQsqaUBKTNV-1" source="vYRAZgHzzo28ocDOjH3z-19" target="vYRAZgHzzo28ocDOjH3z-14" edge="1">
          <mxGeometry width="160" relative="1" as="geometry">
            <mxPoint x="630" y="755" as="sourcePoint" />
            <mxPoint x="360" y="825" as="targetPoint" />
            <Array as="points">
              <mxPoint x="490" y="745" />
              <mxPoint x="490" y="855" />
            </Array>
          </mxGeometry>
        </mxCell>
        <mxCell id="vYRAZgHzzo28ocDOjH3z-29" value="1" style="edgeLabel;html=1;align=center;verticalAlign=middle;resizable=0;points=[];" parent="vYRAZgHzzo28ocDOjH3z-27" vertex="1" connectable="0">
          <mxGeometry x="-0.9373" relative="1" as="geometry">
            <mxPoint as="offset" />
          </mxGeometry>
        </mxCell>
        <mxCell id="vYRAZgHzzo28ocDOjH3z-30" value="Assigment" style="swimlane;fontStyle=0;childLayout=stackLayout;horizontal=1;startSize=26;fillColor=none;horizontalStack=0;resizeParent=1;resizeParentMax=0;resizeLast=0;collapsible=1;marginBottom=0;whiteSpace=wrap;html=1;" parent="WIyWlLk6GJQsqaUBKTNV-1" vertex="1">
          <mxGeometry x="210" y="880" width="140" height="30" as="geometry" />
        </mxCell>
        <mxCell id="vYRAZgHzzo28ocDOjH3z-31" value="" style="endArrow=diamondThin;endFill=0;endSize=24;html=1;rounded=0;entryX=1;entryY=0.5;entryDx=0;entryDy=0;exitX=0;exitY=1;exitDx=0;exitDy=0;" parent="WIyWlLk6GJQsqaUBKTNV-1" source="vYRAZgHzzo28ocDOjH3z-19" target="vYRAZgHzzo28ocDOjH3z-30" edge="1">
          <mxGeometry width="160" relative="1" as="geometry">
            <mxPoint x="380" y="740" as="sourcePoint" />
            <mxPoint x="540" y="740" as="targetPoint" />
            <Array as="points">
              <mxPoint x="620" y="895" />
            </Array>
          </mxGeometry>
        </mxCell>
        <mxCell id="vYRAZgHzzo28ocDOjH3z-32" value="2" style="edgeLabel;html=1;align=center;verticalAlign=middle;resizable=0;points=[];" parent="vYRAZgHzzo28ocDOjH3z-31" vertex="1" connectable="0">
          <mxGeometry x="-0.9499" y="1" relative="1" as="geometry">
            <mxPoint x="-1" y="10" as="offset" />
          </mxGeometry>
        </mxCell>
        <mxCell id="vYRAZgHzzo28ocDOjH3z-33" value="" style="endArrow=block;dashed=1;endFill=0;endSize=12;html=1;rounded=0;entryX=0.5;entryY=1;entryDx=0;entryDy=0;exitX=0;exitY=1;exitDx=0;exitDy=0;" parent="WIyWlLk6GJQsqaUBKTNV-1" source="vYRAZgHzzo28ocDOjH3z-0" target="CXp8G5FO8gf-xtdIojPj-5" edge="1">
          <mxGeometry width="160" relative="1" as="geometry">
            <mxPoint x="380" y="670" as="sourcePoint" />
            <mxPoint x="540" y="670" as="targetPoint" />
            <Array as="points">
              <mxPoint x="155" y="750" />
              <mxPoint x="155" y="710" />
              <mxPoint x="155" y="695" />
            </Array>
          </mxGeometry>
        </mxCell>
        <mxCell id="vYRAZgHzzo28ocDOjH3z-34" value="" style="endArrow=block;dashed=1;endFill=0;endSize=12;html=1;rounded=0;exitX=0;exitY=1;exitDx=0;exitDy=0;" parent="WIyWlLk6GJQsqaUBKTNV-1" source="vYRAZgHzzo28ocDOjH3z-1" edge="1">
          <mxGeometry width="160" relative="1" as="geometry">
            <mxPoint x="210" y="735" as="sourcePoint" />
            <mxPoint x="155" y="430" as="targetPoint" />
            <Array as="points">
              <mxPoint x="155" y="790" />
              <mxPoint x="155" y="750" />
              <mxPoint x="155" y="735" />
            </Array>
          </mxGeometry>
        </mxCell>
        <mxCell id="vYRAZgHzzo28ocDOjH3z-35" value="" style="endArrow=block;dashed=1;endFill=0;endSize=12;html=1;rounded=0;exitX=0;exitY=1;exitDx=0;exitDy=0;" parent="WIyWlLk6GJQsqaUBKTNV-1" source="vYRAZgHzzo28ocDOjH3z-4" edge="1">
          <mxGeometry width="160" relative="1" as="geometry">
            <mxPoint x="210" y="775" as="sourcePoint" />
            <mxPoint x="155" y="430" as="targetPoint" />
            <Array as="points">
              <mxPoint x="155" y="710" />
              <mxPoint x="155" y="775" />
            </Array>
          </mxGeometry>
        </mxCell>
        <mxCell id="vYRAZgHzzo28ocDOjH3z-36" value="" style="endArrow=block;dashed=1;endFill=0;endSize=12;html=1;rounded=0;exitX=0;exitY=1;exitDx=0;exitDy=0;" parent="WIyWlLk6GJQsqaUBKTNV-1" source="vYRAZgHzzo28ocDOjH3z-5" edge="1">
          <mxGeometry width="160" relative="1" as="geometry">
            <mxPoint x="210" y="815" as="sourcePoint" />
            <mxPoint x="155" y="430" as="targetPoint" />
            <Array as="points">
              <mxPoint x="155" y="830" />
              <mxPoint x="155" y="815" />
            </Array>
          </mxGeometry>
        </mxCell>
        <mxCell id="vYRAZgHzzo28ocDOjH3z-37" value="" style="endArrow=block;dashed=1;endFill=0;endSize=12;html=1;rounded=0;exitX=0;exitY=1;exitDx=0;exitDy=0;" parent="WIyWlLk6GJQsqaUBKTNV-1" source="vYRAZgHzzo28ocDOjH3z-14" edge="1">
          <mxGeometry width="160" relative="1" as="geometry">
            <mxPoint x="210" y="855" as="sourcePoint" />
            <mxPoint x="155" y="430" as="targetPoint" />
            <Array as="points">
              <mxPoint x="155" y="870" />
              <mxPoint x="155" y="855" />
            </Array>
          </mxGeometry>
        </mxCell>
        <mxCell id="vYRAZgHzzo28ocDOjH3z-38" value="" style="endArrow=block;dashed=1;endFill=0;endSize=12;html=1;rounded=0;exitX=0;exitY=1;exitDx=0;exitDy=0;" parent="WIyWlLk6GJQsqaUBKTNV-1" source="vYRAZgHzzo28ocDOjH3z-30" edge="1">
          <mxGeometry width="160" relative="1" as="geometry">
            <mxPoint x="210" y="895" as="sourcePoint" />
            <mxPoint x="155" y="430" as="targetPoint" />
            <Array as="points">
              <mxPoint x="155" y="910" />
              <mxPoint x="155" y="895" />
            </Array>
          </mxGeometry>
        </mxCell>
        <mxCell id="vYRAZgHzzo28ocDOjH3z-45" value="" style="endArrow=diamondThin;endFill=0;endSize=24;html=1;rounded=0;entryX=0;entryY=0.25;entryDx=0;entryDy=0;exitX=0.576;exitY=1.012;exitDx=0;exitDy=0;exitPerimeter=0;" parent="WIyWlLk6GJQsqaUBKTNV-1" source="CXp8G5FO8gf-xtdIojPj-5" target="vYRAZgHzzo28ocDOjH3z-5" edge="1">
          <mxGeometry width="160" relative="1" as="geometry">
            <mxPoint x="180" y="441" as="sourcePoint" />
            <mxPoint x="220" y="778" as="targetPoint" />
            <Array as="points">
              <mxPoint x="170" y="808" />
            </Array>
          </mxGeometry>
        </mxCell>
        <mxCell id="vYRAZgHzzo28ocDOjH3z-47" value="&amp;nbsp;0...n&amp;nbsp;" style="edgeLabel;html=1;align=center;verticalAlign=middle;resizable=0;points=[];" parent="vYRAZgHzzo28ocDOjH3z-45" vertex="1" connectable="0">
          <mxGeometry x="-0.9575" y="1" relative="1" as="geometry">
            <mxPoint y="20" as="offset" />
          </mxGeometry>
        </mxCell>
        <mxCell id="Sv4E_dSJLxDFvrBXRxeP-0" value="" style="endArrow=diamondThin;endFill=0;endSize=24;html=1;rounded=0;exitX=1;exitY=1;exitDx=0;exitDy=0;" parent="WIyWlLk6GJQsqaUBKTNV-1" source="CXp8G5FO8gf-xtdIojPj-5" edge="1">
          <mxGeometry width="160" relative="1" as="geometry">
            <mxPoint x="210" y="590" as="sourcePoint" />
            <mxPoint x="251" y="680" as="targetPoint" />
          </mxGeometry>
        </mxCell>
        <mxCell id="Sv4E_dSJLxDFvrBXRxeP-3" value="if...else" style="edgeLabel;html=1;align=center;verticalAlign=middle;resizable=0;points=[];" parent="Sv4E_dSJLxDFvrBXRxeP-0" vertex="1" connectable="0">
          <mxGeometry x="0.1168" y="1" relative="1" as="geometry">
            <mxPoint as="offset" />
          </mxGeometry>
        </mxCell>
        <mxCell id="Sv4E_dSJLxDFvrBXRxeP-5" value="0...n" style="edgeLabel;html=1;align=center;verticalAlign=middle;resizable=0;points=[];" parent="Sv4E_dSJLxDFvrBXRxeP-0" vertex="1" connectable="0">
          <mxGeometry x="-0.792" y="-1" relative="1" as="geometry">
            <mxPoint as="offset" />
          </mxGeometry>
        </mxCell>
        <mxCell id="Sv4E_dSJLxDFvrBXRxeP-1" value="" style="endArrow=diamondThin;endFill=0;endSize=24;html=1;rounded=0;exitX=1;exitY=1;exitDx=0;exitDy=0;" parent="WIyWlLk6GJQsqaUBKTNV-1" edge="1">
          <mxGeometry width="160" relative="1" as="geometry">
            <mxPoint x="220" y="430" as="sourcePoint" />
            <mxPoint x="221" y="680" as="targetPoint" />
          </mxGeometry>
        </mxCell>
        <mxCell id="Sv4E_dSJLxDFvrBXRxeP-2" value="if" style="edgeLabel;html=1;align=center;verticalAlign=middle;resizable=0;points=[];" parent="Sv4E_dSJLxDFvrBXRxeP-1" vertex="1" connectable="0">
          <mxGeometry x="0.0976" relative="1" as="geometry">
            <mxPoint as="offset" />
          </mxGeometry>
        </mxCell>
        <mxCell id="Sv4E_dSJLxDFvrBXRxeP-4" value="0...n" style="edgeLabel;html=1;align=center;verticalAlign=middle;resizable=0;points=[];" parent="Sv4E_dSJLxDFvrBXRxeP-1" vertex="1" connectable="0">
          <mxGeometry x="-0.9104" y="1" relative="1" as="geometry">
            <mxPoint as="offset" />
          </mxGeometry>
        </mxCell>
        <mxCell id="Sv4E_dSJLxDFvrBXRxeP-6" value="FuncInvocation" style="swimlane;fontStyle=0;childLayout=stackLayout;horizontal=1;startSize=26;fillColor=none;horizontalStack=0;resizeParent=1;resizeParentMax=0;resizeLast=0;collapsible=1;marginBottom=0;whiteSpace=wrap;html=1;" parent="WIyWlLk6GJQsqaUBKTNV-1" vertex="1">
          <mxGeometry x="210" y="920" width="140" height="30" as="geometry" />
        </mxCell>
        <mxCell id="Sv4E_dSJLxDFvrBXRxeP-7" value="" style="endArrow=block;dashed=1;endFill=0;endSize=12;html=1;rounded=0;exitX=0;exitY=1;exitDx=0;exitDy=0;" parent="WIyWlLk6GJQsqaUBKTNV-1" edge="1">
          <mxGeometry width="160" relative="1" as="geometry">
            <mxPoint x="210" y="935" as="sourcePoint" />
            <mxPoint x="155" y="430" as="targetPoint" />
            <Array as="points">
              <mxPoint x="155" y="935" />
              <mxPoint x="155" y="920" />
            </Array>
          </mxGeometry>
        </mxCell>
        <mxCell id="Sv4E_dSJLxDFvrBXRxeP-10" value="" style="endArrow=block;dashed=1;endFill=0;endSize=12;html=1;rounded=0;entryX=0.261;entryY=1.016;entryDx=0;entryDy=0;entryPerimeter=0;" parent="WIyWlLk6GJQsqaUBKTNV-1" target="vYRAZgHzzo28ocDOjH3z-19" edge="1">
          <mxGeometry width="160" relative="1" as="geometry">
            <mxPoint x="350" y="934.71" as="sourcePoint" />
            <mxPoint x="510" y="934.71" as="targetPoint" />
            <Array as="points">
              <mxPoint x="670" y="935" />
            </Array>
          </mxGeometry>
        </mxCell>
        <mxCell id="Sv4E_dSJLxDFvrBXRxeP-12" value="" style="endArrow=diamondThin;endFill=0;endSize=24;html=1;rounded=0;entryX=0.75;entryY=1;entryDx=0;entryDy=0;exitX=0.5;exitY=1;exitDx=0;exitDy=0;" parent="WIyWlLk6GJQsqaUBKTNV-1" source="vYRAZgHzzo28ocDOjH3z-19" target="Sv4E_dSJLxDFvrBXRxeP-6" edge="1">
          <mxGeometry width="160" relative="1" as="geometry">
            <mxPoint x="430" y="970" as="sourcePoint" />
            <mxPoint x="590" y="970" as="targetPoint" />
            <Array as="points">
              <mxPoint x="715" y="960" />
              <mxPoint x="715" y="980" />
              <mxPoint x="315" y="980" />
            </Array>
          </mxGeometry>
        </mxCell>
        <mxCell id="Sv4E_dSJLxDFvrBXRxeP-13" value="0...n" style="edgeLabel;html=1;align=center;verticalAlign=middle;resizable=0;points=[];" parent="Sv4E_dSJLxDFvrBXRxeP-12" vertex="1" connectable="0">
          <mxGeometry x="-0.9349" relative="1" as="geometry">
            <mxPoint as="offset" />
          </mxGeometry>
        </mxCell>
        <mxCell id="Sv4E_dSJLxDFvrBXRxeP-20" value="Variable" style="swimlane;fontStyle=0;childLayout=stackLayout;horizontal=1;startSize=26;fillColor=none;horizontalStack=0;resizeParent=1;resizeParentMax=0;resizeLast=0;collapsible=1;marginBottom=0;whiteSpace=wrap;html=1;" parent="WIyWlLk6GJQsqaUBKTNV-1" vertex="1">
          <mxGeometry x="39.5" y="996" width="140" height="56" as="geometry" />
        </mxCell>
        <mxCell id="Sv4E_dSJLxDFvrBXRxeP-21" value="+ value:String" style="text;html=1;align=center;verticalAlign=middle;resizable=0;points=[];autosize=1;strokeColor=none;fillColor=none;" parent="Sv4E_dSJLxDFvrBXRxeP-20" vertex="1">
          <mxGeometry y="26" width="140" height="30" as="geometry" />
        </mxCell>
        <mxCell id="Sv4E_dSJLxDFvrBXRxeP-22" value="" style="endArrow=diamondThin;endFill=0;endSize=24;html=1;rounded=0;entryX=0.5;entryY=1;entryDx=0;entryDy=0;" parent="WIyWlLk6GJQsqaUBKTNV-1" edge="1">
          <mxGeometry width="160" relative="1" as="geometry">
            <mxPoint x="180.5" y="1021" as="sourcePoint" />
            <mxPoint x="270.5" y="950" as="targetPoint" />
            <Array as="points">
              <mxPoint x="270.5" y="1021" />
            </Array>
          </mxGeometry>
        </mxCell>
        <mxCell id="Sv4E_dSJLxDFvrBXRxeP-23" value="1" style="edgeLabel;html=1;align=center;verticalAlign=middle;resizable=0;points=[];" parent="Sv4E_dSJLxDFvrBXRxeP-22" vertex="1" connectable="0">
          <mxGeometry x="-0.8745" y="-1" relative="1" as="geometry">
            <mxPoint x="12" as="offset" />
          </mxGeometry>
        </mxCell>
        <mxCell id="1MVRRoFSADZEBbLevZaC-6" value="ErrorType" style="swimlane;fontStyle=1;align=center;verticalAlign=top;childLayout=stackLayout;horizontal=1;startSize=26;horizontalStack=0;resizeParent=1;resizeParentMax=0;resizeLast=0;collapsible=1;marginBottom=0;whiteSpace=wrap;html=1;" parent="WIyWlLk6GJQsqaUBKTNV-1" vertex="1">
          <mxGeometry x="1120" y="320" width="260" height="112" as="geometry" />
        </mxCell>
        <mxCell id="1MVRRoFSADZEBbLevZaC-7" value="- message: String" style="text;strokeColor=none;fillColor=none;align=left;verticalAlign=top;spacingLeft=4;spacingRight=4;overflow=hidden;rotatable=0;points=[[0,0.5],[1,0.5]];portConstraint=eastwest;whiteSpace=wrap;html=1;" parent="1MVRRoFSADZEBbLevZaC-6" vertex="1">
          <mxGeometry y="26" width="260" height="26" as="geometry" />
        </mxCell>
        <mxCell id="1MVRRoFSADZEBbLevZaC-8" value="" style="line;strokeWidth=1;fillColor=none;align=left;verticalAlign=middle;spacingTop=-1;spacingLeft=3;spacingRight=3;rotatable=0;labelPosition=right;points=[];portConstraint=eastwest;strokeColor=inherit;" parent="1MVRRoFSADZEBbLevZaC-6" vertex="1">
          <mxGeometry y="52" width="260" height="8" as="geometry" />
        </mxCell>
        <mxCell id="1MVRRoFSADZEBbLevZaC-9" value="+ errorType(String, Locatable)" style="text;strokeColor=none;fillColor=none;align=left;verticalAlign=top;spacingLeft=4;spacingRight=4;overflow=hidden;rotatable=0;points=[[0,0.5],[1,0.5]];portConstraint=eastwest;whiteSpace=wrap;html=1;" parent="1MVRRoFSADZEBbLevZaC-6" vertex="1">
          <mxGeometry y="60" width="260" height="26" as="geometry" />
        </mxCell>
        <mxCell id="1MVRRoFSADZEBbLevZaC-10" value="+ toString(): String" style="text;strokeColor=none;fillColor=none;align=left;verticalAlign=top;spacingLeft=4;spacingRight=4;overflow=hidden;rotatable=0;points=[[0,0.5],[1,0.5]];portConstraint=eastwest;whiteSpace=wrap;html=1;" parent="1MVRRoFSADZEBbLevZaC-6" vertex="1">
          <mxGeometry y="86" width="260" height="26" as="geometry" />
        </mxCell>
        <mxCell id="1MVRRoFSADZEBbLevZaC-11" value="&lt;p style=&quot;margin:0px;margin-top:4px;text-align:center;&quot;&gt;&lt;i&gt;&amp;lt;&amp;lt;Singleton&amp;gt;&amp;gt;&lt;/i&gt;&lt;br&gt;&lt;b&gt;ErrorHandler&lt;/b&gt;&lt;/p&gt;&lt;hr size=&quot;1&quot; style=&quot;border-style:solid;&quot;&gt;&lt;p style=&quot;margin:0px;margin-left:4px;&quot;&gt;+ addError(errorType)&lt;br&gt;+ anyError(): boolean&lt;/p&gt;&lt;p style=&quot;margin:0px;margin-left:4px;&quot;&gt;+ showError(printStream)&lt;/p&gt;&lt;p style=&quot;margin:0px;margin-left:4px;&quot;&gt;&lt;br&gt;&lt;/p&gt;" style="verticalAlign=top;align=left;overflow=fill;html=1;whiteSpace=wrap;" parent="WIyWlLk6GJQsqaUBKTNV-1" vertex="1">
          <mxGeometry x="1155" y="500" width="190" height="90" as="geometry" />
        </mxCell>
        <mxCell id="1MVRRoFSADZEBbLevZaC-12" value="" style="endArrow=block;dashed=1;endFill=0;endSize=12;html=1;rounded=0;entryX=1;entryY=0.5;entryDx=0;entryDy=0;exitX=0;exitY=0.5;exitDx=0;exitDy=0;" parent="WIyWlLk6GJQsqaUBKTNV-1" source="1MVRRoFSADZEBbLevZaC-9" target="CXp8G5FO8gf-xtdIojPj-3" edge="1">
          <mxGeometry width="160" relative="1" as="geometry">
            <mxPoint x="840" y="480" as="sourcePoint" />
            <mxPoint x="1000" y="480" as="targetPoint" />
          </mxGeometry>
        </mxCell>
        <mxCell id="1MVRRoFSADZEBbLevZaC-13" value="" style="endArrow=diamondThin;endFill=0;endSize=24;html=1;rounded=0;entryX=0.5;entryY=0;entryDx=0;entryDy=0;exitX=1;exitY=0.5;exitDx=0;exitDy=0;" parent="WIyWlLk6GJQsqaUBKTNV-1" source="CXp8G5FO8gf-xtdIojPj-1" target="1MVRRoFSADZEBbLevZaC-6" edge="1">
          <mxGeometry width="160" relative="1" as="geometry">
            <mxPoint x="290" y="110" as="sourcePoint" />
            <mxPoint x="1300" y="230" as="targetPoint" />
            <Array as="points">
              <mxPoint x="1250" y="240" />
            </Array>
          </mxGeometry>
        </mxCell>
        <mxCell id="1MVRRoFSADZEBbLevZaC-14" value="1 node" style="edgeLabel;html=1;align=center;verticalAlign=middle;resizable=0;points=[];" parent="1MVRRoFSADZEBbLevZaC-13" vertex="1" connectable="0">
          <mxGeometry x="-0.9124" relative="1" as="geometry">
            <mxPoint as="offset" />
          </mxGeometry>
        </mxCell>
        <mxCell id="1MVRRoFSADZEBbLevZaC-16" value="" style="endArrow=open;endFill=1;endSize=12;html=1;rounded=0;exitX=0.5;exitY=0;exitDx=0;exitDy=0;entryX=0.501;entryY=1.033;entryDx=0;entryDy=0;entryPerimeter=0;" parent="WIyWlLk6GJQsqaUBKTNV-1" source="1MVRRoFSADZEBbLevZaC-11" target="1MVRRoFSADZEBbLevZaC-10" edge="1">
          <mxGeometry width="160" relative="1" as="geometry">
            <mxPoint x="995" y="510" as="sourcePoint" />
            <mxPoint x="1254" y="434" as="targetPoint" />
          </mxGeometry>
        </mxCell>
        <mxCell id="1MVRRoFSADZEBbLevZaC-17" value="*&amp;nbsp;&lt;span style=&quot;background-color: light-dark(#ffffff, var(--ge-dark-color, #121212)); color: light-dark(rgb(0, 0, 0), rgb(255, 255, 255));&quot;&gt;errors&lt;/span&gt;" style="edgeLabel;html=1;align=center;verticalAlign=middle;resizable=0;points=[];" parent="1MVRRoFSADZEBbLevZaC-16" vertex="1" connectable="0">
          <mxGeometry x="0.5978" y="-2" relative="1" as="geometry">
            <mxPoint x="28" y="4" as="offset" />
          </mxGeometry>
        </mxCell>
        <mxCell id="bhQwarYT9J2fNv-TNmjf-0" value="&lt;p style=&quot;margin:0px;margin-top:4px;text-align:center;&quot;&gt;&lt;i&gt;&amp;lt;&amp;lt;Interface&amp;gt;&amp;gt;&lt;/i&gt;&lt;br&gt;&lt;b&gt;Visitor&lt;/b&gt;&lt;/p&gt;&lt;hr size=&quot;1&quot; style=&quot;border-style:solid;&quot;&gt;&lt;p style=&quot;margin:0px;margin-left:4px;&quot;&gt;+ TR visit (Arithmetic e, TP param&lt;span style=&quot;background-color: transparent; color: light-dark(rgb(0, 0, 0), rgb(255, 255, 255));&quot;&gt;)&lt;/span&gt;&lt;/p&gt;&lt;p style=&quot;margin:0px;margin-left:4px;&quot;&gt;+ TR visit (ArrayAccess e, TP param&lt;span style=&quot;color: light-dark(rgb(0, 0, 0), rgb(255, 255, 255)); background-color: transparent;&quot;&gt;)&lt;/span&gt;&lt;span style=&quot;background-color: transparent; color: light-dark(rgb(0, 0, 0), rgb(255, 255, 255));&quot;&gt;&lt;/span&gt;&lt;/p&gt;&lt;p style=&quot;margin:0px;margin-left:4px;&quot;&gt;+ TR visit (Cast e, TP param&lt;span style=&quot;color: light-dark(rgb(0, 0, 0), rgb(255, 255, 255)); background-color: transparent;&quot;&gt;)&lt;/span&gt;&lt;/p&gt;&lt;p style=&quot;margin:0px;margin-left:4px;&quot;&gt;&lt;span style=&quot;color: light-dark(rgb(0, 0, 0), rgb(255, 255, 255)); background-color: transparent;&quot;&gt;.....&lt;/span&gt;&lt;/p&gt;" style="verticalAlign=top;align=left;overflow=fill;html=1;whiteSpace=wrap;" parent="WIyWlLk6GJQsqaUBKTNV-1" vertex="1">
          <mxGeometry x="490" y="-510" width="250" height="110" as="geometry" />
        </mxCell>
        <mxCell id="bhQwarYT9J2fNv-TNmjf-2" value="" style="endArrow=block;dashed=1;endFill=0;endSize=12;html=1;rounded=0;exitX=1.009;exitY=0.122;exitDx=0;exitDy=0;exitPerimeter=0;entryX=-0.001;entryY=0.456;entryDx=0;entryDy=0;entryPerimeter=0;" parent="WIyWlLk6GJQsqaUBKTNV-1" source="bhQwarYT9J2fNv-TNmjf-4" target="bhQwarYT9J2fNv-TNmjf-0" edge="1">
          <mxGeometry width="160" relative="1" as="geometry">
            <mxPoint x="210" y="-170" as="sourcePoint" />
            <mxPoint x="130" y="-407.5" as="targetPoint" />
            <Array as="points" />
          </mxGeometry>
        </mxCell>
        <mxCell id="bhQwarYT9J2fNv-TNmjf-3" value="AbstractVisitor" style="swimlane;fontStyle=0;childLayout=stackLayout;horizontal=1;startSize=26;fillColor=none;horizontalStack=0;resizeParent=1;resizeParentMax=0;resizeLast=0;collapsible=1;marginBottom=0;whiteSpace=wrap;html=1;" parent="WIyWlLk6GJQsqaUBKTNV-1" vertex="1">
          <mxGeometry x="70" y="-490" width="265" height="56" as="geometry" />
        </mxCell>
        <mxCell id="bhQwarYT9J2fNv-TNmjf-4" value="..." style="text;html=1;align=center;verticalAlign=middle;resizable=0;points=[];autosize=1;strokeColor=none;fillColor=none;" parent="bhQwarYT9J2fNv-TNmjf-3" vertex="1">
          <mxGeometry y="26" width="265" height="30" as="geometry" />
        </mxCell>
        <mxCell id="bhQwarYT9J2fNv-TNmjf-8" value="TypeCheckingVisitor" style="swimlane;fontStyle=0;childLayout=stackLayout;horizontal=1;startSize=26;fillColor=none;horizontalStack=0;resizeParent=1;resizeParentMax=0;resizeLast=0;collapsible=1;marginBottom=0;whiteSpace=wrap;html=1;" parent="WIyWlLk6GJQsqaUBKTNV-1" vertex="1">
          <mxGeometry x="30" y="-160" width="266" height="100" as="geometry" />
        </mxCell>
        <mxCell id="bhQwarYT9J2fNv-TNmjf-14" value="&lt;span style=&quot;color: rgb(0, 0, 0); font-family: Helvetica; font-size: 12px; font-style: normal; font-variant-ligatures: normal; font-variant-caps: normal; font-weight: 400; letter-spacing: normal; orphans: 2; text-align: center; text-indent: 0px; text-transform: none; widows: 2; word-spacing: 0px; -webkit-text-stroke-width: 0px; white-space: nowrap; background-color: rgb(251, 251, 251); text-decoration-thickness: initial; text-decoration-style: initial; text-decoration-color: initial; display: inline !important; float: none;&quot;&gt;&amp;nbsp;+ Boolean visit (Arithmetic e, Type param&lt;/span&gt;&lt;span style=&quot;forced-color-adjust: none; color: light-dark(rgb(0, 0, 0), rgb(255, 255, 255)); font-family: Helvetica; font-size: 12px; font-style: normal; font-variant-ligatures: normal; font-variant-caps: normal; font-weight: 400; letter-spacing: normal; orphans: 2; text-align: center; text-indent: 0px; text-transform: none; widows: 2; word-spacing: 0px; -webkit-text-stroke-width: 0px; white-space: nowrap; background-color: transparent; text-decoration-thickness: initial; text-decoration-style: initial; text-decoration-color: initial;&quot;&gt;)&lt;/span&gt;&lt;div&gt;&lt;span style=&quot;forced-color-adjust: none; color: light-dark(rgb(0, 0, 0), rgb(255, 255, 255)); font-family: Helvetica; font-size: 12px; font-style: normal; font-variant-ligatures: normal; font-variant-caps: normal; font-weight: 400; letter-spacing: normal; orphans: 2; text-align: center; text-indent: 0px; text-transform: none; widows: 2; word-spacing: 0px; -webkit-text-stroke-width: 0px; white-space: nowrap; background-color: transparent; text-decoration-thickness: initial; text-decoration-style: initial; text-decoration-color: initial;&quot;&gt;&lt;p style=&quot;text-align: left; text-wrap-mode: wrap; margin: 0px 0px 0px 4px;&quot;&gt;+&amp;nbsp;&lt;span style=&quot;text-align: center; text-wrap-mode: nowrap;&quot;&gt;Boolean&amp;nbsp;&lt;/span&gt;visit (ArrayAccess e,&amp;nbsp;&lt;span style=&quot;text-align: center; text-wrap-mode: nowrap;&quot;&gt;Type&amp;nbsp;&lt;/span&gt;param&lt;span style=&quot;color: light-dark(rgb(0, 0, 0), rgb(255, 255, 255)); background-color: transparent;&quot;&gt;)&lt;/span&gt;&lt;span style=&quot;background-color: transparent; color: light-dark(rgb(0, 0, 0), rgb(255, 255, 255));&quot;&gt;&lt;/span&gt;&lt;/p&gt;&lt;p style=&quot;text-align: left; text-wrap-mode: wrap; margin: 0px 0px 0px 4px;&quot;&gt;+&amp;nbsp;&lt;span style=&quot;text-align: center; text-wrap-mode: nowrap;&quot;&gt;Boolean&amp;nbsp;&lt;/span&gt;visit (Cast e,&amp;nbsp;&lt;span style=&quot;text-align: center; text-wrap-mode: nowrap;&quot;&gt;Type&amp;nbsp;&lt;/span&gt;param&lt;span style=&quot;color: light-dark(rgb(0, 0, 0), rgb(255, 255, 255)); background-color: transparent;&quot;&gt;)&lt;/span&gt;&lt;/p&gt;&lt;p style=&quot;text-align: left; text-wrap-mode: wrap; margin: 0px 0px 0px 4px;&quot;&gt;&lt;span style=&quot;color: light-dark(rgb(0, 0, 0), rgb(255, 255, 255)); background-color: transparent;&quot;&gt;.....&lt;/span&gt;&lt;/p&gt;&lt;/span&gt;&lt;/div&gt;" style="text;whiteSpace=wrap;html=1;" parent="bhQwarYT9J2fNv-TNmjf-8" vertex="1">
          <mxGeometry y="26" width="266" height="74" as="geometry" />
        </mxCell>
        <mxCell id="bhQwarYT9J2fNv-TNmjf-15" value="Extends" style="endArrow=block;endSize=16;endFill=0;html=1;rounded=0;entryX=0.338;entryY=1.047;entryDx=0;entryDy=0;exitX=0.49;exitY=0.002;exitDx=0;exitDy=0;entryPerimeter=0;exitPerimeter=0;" parent="WIyWlLk6GJQsqaUBKTNV-1" source="bhQwarYT9J2fNv-TNmjf-8" edge="1" target="bhQwarYT9J2fNv-TNmjf-4">
          <mxGeometry x="0.1739" y="-30" width="160" relative="1" as="geometry">
            <mxPoint x="325" y="-84" as="sourcePoint" />
            <mxPoint x="280" y="-204" as="targetPoint" />
            <Array as="points" />
            <mxPoint as="offset" />
          </mxGeometry>
        </mxCell>
        <mxCell id="XYgYmsjpY4iuOhfQdAQo-0" value="IdentificatorVisitor" style="swimlane;fontStyle=0;childLayout=stackLayout;horizontal=1;startSize=26;fillColor=none;horizontalStack=0;resizeParent=1;resizeParentMax=0;resizeLast=0;collapsible=1;marginBottom=0;whiteSpace=wrap;html=1;" vertex="1" parent="WIyWlLk6GJQsqaUBKTNV-1">
          <mxGeometry x="350" y="-160" width="280" height="100" as="geometry" />
        </mxCell>
        <mxCell id="XYgYmsjpY4iuOhfQdAQo-1" value="&lt;span style=&quot;color: rgb(0, 0, 0); font-family: Helvetica; font-size: 12px; font-style: normal; font-variant-ligatures: normal; font-variant-caps: normal; font-weight: 400; letter-spacing: normal; orphans: 2; text-align: center; text-indent: 0px; text-transform: none; widows: 2; word-spacing: 0px; -webkit-text-stroke-width: 0px; white-space: nowrap; background-color: rgb(251, 251, 251); text-decoration-thickness: initial; text-decoration-style: initial; text-decoration-color: initial; float: none; display: inline !important;&quot;&gt;&amp;nbsp;+ Void visit (Variable e, Void param&lt;/span&gt;&lt;span style=&quot;forced-color-adjust: none; color: light-dark(rgb(0, 0, 0), rgb(255, 255, 255)); font-family: Helvetica; font-size: 12px; font-style: normal; font-variant-ligatures: normal; font-variant-caps: normal; font-weight: 400; letter-spacing: normal; orphans: 2; text-align: center; text-indent: 0px; text-transform: none; widows: 2; word-spacing: 0px; -webkit-text-stroke-width: 0px; white-space: nowrap; background-color: transparent; text-decoration-thickness: initial; text-decoration-style: initial; text-decoration-color: initial;&quot;&gt;)&lt;/span&gt;&lt;div&gt;&lt;span style=&quot;forced-color-adjust: none; color: light-dark(rgb(0, 0, 0), rgb(255, 255, 255)); font-family: Helvetica; font-size: 12px; font-style: normal; font-variant-ligatures: normal; font-variant-caps: normal; font-weight: 400; letter-spacing: normal; orphans: 2; text-align: center; text-indent: 0px; text-transform: none; widows: 2; word-spacing: 0px; -webkit-text-stroke-width: 0px; white-space-collapse: collapse; background-color: transparent; text-decoration-thickness: initial; text-decoration-style: initial; text-decoration-color: initial;&quot;&gt;&lt;p style=&quot;text-wrap-mode: wrap; text-align: left; margin: 0px 0px 0px 4px;&quot;&gt;+ Void&lt;span style=&quot;text-align: center; text-wrap-mode: nowrap;&quot;&gt;&amp;nbsp;&lt;/span&gt;visit (FunctionDefinition e, Void&lt;span style=&quot;text-align: center; text-wrap-mode: nowrap;&quot;&gt;&amp;nbsp;&lt;/span&gt;param&lt;span style=&quot;color: light-dark(rgb(0, 0, 0), rgb(255, 255, 255)); background-color: transparent;&quot;&gt;)&lt;/span&gt;&lt;span style=&quot;background-color: transparent; color: light-dark(rgb(0, 0, 0), rgb(255, 255, 255));&quot;&gt;&lt;/span&gt;&lt;/p&gt;&lt;p style=&quot;text-align: center; margin: 0px 0px 0px 4px;&quot;&gt;&lt;span style=&quot;text-wrap-mode: wrap;&quot;&gt;+ &lt;/span&gt;&lt;span style=&quot;text-wrap-mode: nowrap;&quot;&gt;Void&amp;nbsp;&lt;/span&gt;visit (VariableDefinition e, Void&lt;span style=&quot;text-wrap-mode: nowrap; text-align: center;&quot;&gt;&amp;nbsp;&lt;/span&gt;param&lt;span style=&quot;text-wrap-mode: wrap; color: light-dark(rgb(0, 0, 0), rgb(255, 255, 255)); background-color: transparent;&quot;&gt;)&lt;/span&gt;&lt;/p&gt;&lt;/span&gt;&lt;/div&gt;" style="text;whiteSpace=wrap;html=1;" vertex="1" parent="XYgYmsjpY4iuOhfQdAQo-0">
          <mxGeometry y="26" width="280" height="74" as="geometry" />
        </mxCell>
        <mxCell id="XYgYmsjpY4iuOhfQdAQo-2" value="" style="endArrow=block;endSize=16;endFill=0;html=1;rounded=0;entryX=0.338;entryY=1.007;entryDx=0;entryDy=0;exitX=0.5;exitY=0;exitDx=0;exitDy=0;entryPerimeter=0;" edge="1" parent="WIyWlLk6GJQsqaUBKTNV-1" source="XYgYmsjpY4iuOhfQdAQo-0" target="bhQwarYT9J2fNv-TNmjf-4">
          <mxGeometry width="160" relative="1" as="geometry">
            <mxPoint x="320" y="-167" as="sourcePoint" />
            <mxPoint x="320" y="-440" as="targetPoint" />
            <Array as="points">
              <mxPoint x="490" y="-220" />
              <mxPoint x="160" y="-220" />
            </Array>
          </mxGeometry>
        </mxCell>
        <mxCell id="XYgYmsjpY4iuOhfQdAQo-3" value="Text" style="text;html=1;align=center;verticalAlign=middle;resizable=0;points=[];autosize=1;strokeColor=none;fillColor=none;" vertex="1" parent="WIyWlLk6GJQsqaUBKTNV-1">
          <mxGeometry x="685" y="-352" width="50" height="30" as="geometry" />
        </mxCell>
      </root>
    </mxGraphModel>
  </diagram>
</mxfile>
